<svg id="visual" viewBox="0 0 900 600" width="900" height="600" xmlns="http://www.w3.org/2000/svg" xmlns:xlink="http://www.w3.org/1999/xlink" version="1.1"><g stroke-width="1" stroke-linejoin="bevel"><path d="M382 333L332 372L404 410Z" fill="#465a65" stroke="#465a65"></path><path d="M404 410L471 430L382 333Z" fill="#526874" stroke="#526874"></path><path d="M382 333L321 274L332 372Z" fill="#253139" stroke="#253139"></path><path d="M332 372L395 492L404 410Z" fill="#5d7784" stroke="#5d7784"></path><path d="M404 410L395 492L471 430Z" fill="#7595a4" stroke="#7595a4"></path><path d="M382 333L326 238L321 274Z" fill="#1b252c" stroke="#1b252c"></path><path d="M404 169L326 238L382 333Z" fill="#000a12" stroke="#000a12"></path><path d="M395 492L499 463L471 430Z" fill="#5d7784" stroke="#5d7784"></path><path d="M471 430L518 263L382 333Z" fill="#000a12" stroke="#000a12"></path><path d="M207 313L225 378L332 372Z" fill="#11191f" stroke="#11191f"></path><path d="M332 372L265 526L395 492Z" fill="#000a12" stroke="#000a12"></path><path d="M207 313L332 372L321 274Z" fill="#1b252c" stroke="#1b252c"></path><path d="M225 378L232 477L332 372Z" fill="#7595a4" stroke="#7595a4"></path><path d="M201 195L207 313L321 274Z" fill="#3b4c56" stroke="#3b4c56"></path><path d="M225 378L125 410L232 477Z" fill="#253139" stroke="#253139"></path><path d="M562 379L518 263L471 430Z" fill="#253139" stroke="#253139"></path><path d="M232 477L265 526L332 372Z" fill="#5d7784" stroke="#5d7784"></path><path d="M499 463L562 379L471 430Z" fill="#3b4c56" stroke="#3b4c56"></path><path d="M518 263L501 226L382 333Z" fill="#7595a4" stroke="#7595a4"></path><path d="M501 226L404 169L382 333Z" fill="#000a12" stroke="#000a12"></path><path d="M326 238L201 195L321 274Z" fill="#303e48" stroke="#303e48"></path><path d="M518 263L582 189L501 226Z" fill="#3b4c56" stroke="#3b4c56"></path><path d="M562 379L574 281L518 263Z" fill="#526874" stroke="#526874"></path><path d="M265 526L408 600L395 492Z" fill="#1b252c" stroke="#1b252c"></path><path d="M395 492L501 600L499 463Z" fill="#5d7784" stroke="#5d7784"></path><path d="M499 463L618 472L562 379Z" fill="#1b252c" stroke="#1b252c"></path><path d="M186 600L272 600L265 526Z" fill="#465a65" stroke="#465a65"></path><path d="M265 526L272 600L408 600Z" fill="#253139" stroke="#253139"></path><path d="M501 226L430 134L404 169Z" fill="#3b4c56" stroke="#3b4c56"></path><path d="M321 92L201 195L326 238Z" fill="#465a65" stroke="#465a65"></path><path d="M527 136L430 134L501 226Z" fill="#698694" stroke="#698694"></path><path d="M321 92L326 238L404 169Z" fill="#7595a4" stroke="#7595a4"></path><path d="M207 313L125 410L225 378Z" fill="#465a65" stroke="#465a65"></path><path d="M232 477L186 600L265 526Z" fill="#3b4c56" stroke="#3b4c56"></path><path d="M96 317L125 410L207 313Z" fill="#303e48" stroke="#303e48"></path><path d="M408 600L501 600L395 492Z" fill="#465a65" stroke="#465a65"></path><path d="M590 600L618 472L499 463Z" fill="#465a65" stroke="#465a65"></path><path d="M562 379L691 338L574 281Z" fill="#465a65" stroke="#465a65"></path><path d="M716 184L582 189L574 281Z" fill="#1b252c" stroke="#1b252c"></path><path d="M574 281L582 189L518 263Z" fill="#526874" stroke="#526874"></path><path d="M582 189L527 136L501 226Z" fill="#465a65" stroke="#465a65"></path><path d="M201 195L96 317L207 313Z" fill="#11191f" stroke="#11191f"></path><path d="M430 134L321 92L404 169Z" fill="#7595a4" stroke="#7595a4"></path><path d="M428 0L321 92L430 134Z" fill="#303e48" stroke="#303e48"></path><path d="M119 533L186 600L232 477Z" fill="#000a12" stroke="#000a12"></path><path d="M90 600L119 533L0 600Z" fill="#465a65" stroke="#465a65"></path><path d="M125 410L119 533L232 477Z" fill="#7595a4" stroke="#7595a4"></path><path d="M618 472L683 383L562 379Z" fill="#253139" stroke="#253139"></path><path d="M501 600L590 600L499 463Z" fill="#303e48" stroke="#303e48"></path><path d="M618 472L672 472L683 383Z" fill="#698694" stroke="#698694"></path><path d="M590 600L672 472L618 472Z" fill="#11191f" stroke="#11191f"></path><path d="M793 308L691 338L812 364Z" fill="#253139" stroke="#253139"></path><path d="M683 383L691 338L562 379Z" fill="#7595a4" stroke="#7595a4"></path><path d="M321 92L223 79L201 195Z" fill="#253139" stroke="#253139"></path><path d="M201 195L81 177L96 317Z" fill="#303e48" stroke="#303e48"></path><path d="M127 120L81 177L201 195Z" fill="#303e48" stroke="#303e48"></path><path d="M0 481L119 533L125 410Z" fill="#5d7784" stroke="#5d7784"></path><path d="M223 79L127 120L201 195Z" fill="#303e48" stroke="#303e48"></path><path d="M0 394L125 410L96 317Z" fill="#253139" stroke="#253139"></path><path d="M119 533L90 600L186 600Z" fill="#5d7784" stroke="#5d7784"></path><path d="M582 189L627 99L527 136Z" fill="#303e48" stroke="#303e48"></path><path d="M516 0L428 0L430 134Z" fill="#3b4c56" stroke="#3b4c56"></path><path d="M321 92L283 0L223 79Z" fill="#526874" stroke="#526874"></path><path d="M716 184L627 99L582 189Z" fill="#698694" stroke="#698694"></path><path d="M0 318L0 394L96 317Z" fill="#465a65" stroke="#465a65"></path><path d="M516 0L430 134L527 136Z" fill="#000a12" stroke="#000a12"></path><path d="M81 177L0 318L96 317Z" fill="#465a65" stroke="#465a65"></path><path d="M428 0L283 0L321 92Z" fill="#3b4c56" stroke="#3b4c56"></path><path d="M223 79L172 0L127 120Z" fill="#3b4c56" stroke="#3b4c56"></path><path d="M0 394L0 481L125 410Z" fill="#11191f" stroke="#11191f"></path><path d="M691 338L716 184L574 281Z" fill="#3b4c56" stroke="#3b4c56"></path><path d="M793 308L716 184L691 338Z" fill="#3b4c56" stroke="#3b4c56"></path><path d="M576 0L516 0L527 136Z" fill="#526874" stroke="#526874"></path><path d="M590 600L711 600L672 472Z" fill="#465a65" stroke="#465a65"></path><path d="M812 364L691 338L683 383Z" fill="#526874" stroke="#526874"></path><path d="M716 184L666 69L627 99Z" fill="#253139" stroke="#253139"></path><path d="M627 99L576 0L527 136Z" fill="#3b4c56" stroke="#3b4c56"></path><path d="M812 364L683 383L672 472Z" fill="#526874" stroke="#526874"></path><path d="M716 184L772 114L666 69Z" fill="#465a65" stroke="#465a65"></path><path d="M666 69L576 0L627 99Z" fill="#303e48" stroke="#303e48"></path><path d="M283 0L172 0L223 79Z" fill="#526874" stroke="#526874"></path><path d="M0 104L0 167L81 177Z" fill="#526874" stroke="#526874"></path><path d="M81 177L0 167L0 318Z" fill="#1b252c" stroke="#1b252c"></path><path d="M0 104L81 177L127 120Z" fill="#1b252c" stroke="#1b252c"></path><path d="M798 538L812 364L672 472Z" fill="#11191f" stroke="#11191f"></path><path d="M0 481L0 600L119 533Z" fill="#11191f" stroke="#11191f"></path><path d="M711 600L798 538L672 472Z" fill="#303e48" stroke="#303e48"></path><path d="M711 600L769 600L798 538Z" fill="#465a65" stroke="#465a65"></path><path d="M793 308L812 229L716 184Z" fill="#303e48" stroke="#303e48"></path><path d="M900 337L812 229L793 308Z" fill="#465a65" stroke="#465a65"></path><path d="M71 0L0 104L127 120Z" fill="#303e48" stroke="#303e48"></path><path d="M812 229L772 114L716 184Z" fill="#7595a4" stroke="#7595a4"></path><path d="M666 69L700 0L576 0Z" fill="#5d7784" stroke="#5d7784"></path><path d="M172 0L71 0L127 120Z" fill="#1b252c" stroke="#1b252c"></path><path d="M772 114L700 0L666 69Z" fill="#7595a4" stroke="#7595a4"></path><path d="M900 481L900 372L812 364Z" fill="#000a12" stroke="#000a12"></path><path d="M812 364L900 337L793 308Z" fill="#698694" stroke="#698694"></path><path d="M812 229L900 212L772 114Z" fill="#000a12" stroke="#000a12"></path><path d="M900 481L812 364L798 538Z" fill="#465a65" stroke="#465a65"></path><path d="M900 372L900 337L812 364Z" fill="#3b4c56" stroke="#3b4c56"></path><path d="M71 0L0 0L0 104Z" fill="#1b252c" stroke="#1b252c"></path><path d="M900 600L900 481L798 538Z" fill="#3b4c56" stroke="#3b4c56"></path><path d="M900 337L900 212L812 229Z" fill="#253139" stroke="#253139"></path><path d="M772 114L829 0L700 0Z" fill="#1b252c" stroke="#1b252c"></path><path d="M769 600L900 600L798 538Z" fill="#253139" stroke="#253139"></path><path d="M900 85L829 0L772 114Z" fill="#1b252c" stroke="#1b252c"></path><path d="M900 212L900 85L772 114Z" fill="#1b252c" stroke="#1b252c"></path><path d="M900 85L900 0L829 0Z" fill="#11191f" stroke="#11191f"></path></g></svg>